<mxfile host="app.diagrams.net" modified="2020-12-08T05:51:32.568Z" agent="5.0 (X11; Linux x86_64) AppleWebKit/537.36 (KHTML, like Gecko) Chrome/86.0.4240.111 Safari/537.36" etag="RlK9N1uKRNwKh5Ly0UuQ" version="13.7.9" type="github">
  <diagram id="wBptbbUKilriouOjg9gn" name="第 1 页">
    <mxGraphModel dx="1422" dy="764" grid="1" gridSize="10" guides="1" tooltips="1" connect="1" arrows="1" fold="1" page="1" pageScale="1" pageWidth="827" pageHeight="1169" math="0" shadow="0">
      <root>
        <mxCell id="0" />
        <mxCell id="1" parent="0" />
        <mxCell id="wqrN-mfLRdxK1pLGfhty-4" value="数据id" style="edgeStyle=orthogonalEdgeStyle;rounded=0;orthogonalLoop=1;jettySize=auto;html=1;exitX=1;exitY=0.5;exitDx=0;exitDy=0;" edge="1" parent="1" source="wqrN-mfLRdxK1pLGfhty-1" target="wqrN-mfLRdxK1pLGfhty-3">
          <mxGeometry relative="1" as="geometry" />
        </mxCell>
        <mxCell id="wqrN-mfLRdxK1pLGfhty-11" style="edgeStyle=orthogonalEdgeStyle;rounded=0;orthogonalLoop=1;jettySize=auto;html=1;exitX=0.5;exitY=1;exitDx=0;exitDy=0;entryX=0.5;entryY=0;entryDx=0;entryDy=0;" edge="1" parent="1" source="wqrN-mfLRdxK1pLGfhty-1" target="wqrN-mfLRdxK1pLGfhty-12">
          <mxGeometry relative="1" as="geometry">
            <mxPoint x="110" y="410" as="targetPoint" />
          </mxGeometry>
        </mxCell>
        <mxCell id="wqrN-mfLRdxK1pLGfhty-1" value="批量发送短信&lt;br&gt;（Brower）" style="ellipse;whiteSpace=wrap;html=1;" vertex="1" parent="1">
          <mxGeometry x="50" y="270" width="120" height="80" as="geometry" />
        </mxCell>
        <mxCell id="wqrN-mfLRdxK1pLGfhty-2" value="form" style="shape=umlFrame;whiteSpace=wrap;html=1;" vertex="1" parent="1">
          <mxGeometry x="250" y="230" width="180" height="300" as="geometry" />
        </mxCell>
        <mxCell id="wqrN-mfLRdxK1pLGfhty-6" style="edgeStyle=orthogonalEdgeStyle;rounded=0;orthogonalLoop=1;jettySize=auto;html=1;entryX=0;entryY=0.5;entryDx=0;entryDy=0;" edge="1" parent="1" source="wqrN-mfLRdxK1pLGfhty-3" target="wqrN-mfLRdxK1pLGfhty-5">
          <mxGeometry relative="1" as="geometry" />
        </mxCell>
        <mxCell id="wqrN-mfLRdxK1pLGfhty-10" value="标识id" style="edgeStyle=orthogonalEdgeStyle;rounded=0;orthogonalLoop=1;jettySize=auto;html=1;exitX=0;exitY=0.75;exitDx=0;exitDy=0;entryX=0.917;entryY=0.688;entryDx=0;entryDy=0;entryPerimeter=0;" edge="1" parent="1" source="wqrN-mfLRdxK1pLGfhty-3" target="wqrN-mfLRdxK1pLGfhty-1">
          <mxGeometry relative="1" as="geometry" />
        </mxCell>
        <mxCell id="wqrN-mfLRdxK1pLGfhty-3" value="查询数据" style="rounded=0;whiteSpace=wrap;html=1;" vertex="1" parent="1">
          <mxGeometry x="280" y="280" width="120" height="60" as="geometry" />
        </mxCell>
        <mxCell id="wqrN-mfLRdxK1pLGfhty-5" value="记录选中手机号&lt;br&gt;（Redis）" style="shape=document;whiteSpace=wrap;html=1;boundedLbl=1;" vertex="1" parent="1">
          <mxGeometry x="480" y="270" width="120" height="80" as="geometry" />
        </mxCell>
        <mxCell id="wqrN-mfLRdxK1pLGfhty-14" value="" style="edgeStyle=orthogonalEdgeStyle;rounded=0;orthogonalLoop=1;jettySize=auto;html=1;entryX=0;entryY=0.5;entryDx=0;entryDy=0;" edge="1" parent="1" source="wqrN-mfLRdxK1pLGfhty-12" target="wqrN-mfLRdxK1pLGfhty-13">
          <mxGeometry relative="1" as="geometry" />
        </mxCell>
        <mxCell id="wqrN-mfLRdxK1pLGfhty-12" value="跳转SMS页面" style="rounded=0;whiteSpace=wrap;html=1;" vertex="1" parent="1">
          <mxGeometry x="50" y="440" width="120" height="60" as="geometry" />
        </mxCell>
        <mxCell id="wqrN-mfLRdxK1pLGfhty-16" style="edgeStyle=orthogonalEdgeStyle;rounded=0;orthogonalLoop=1;jettySize=auto;html=1;entryX=0.5;entryY=0.925;entryDx=0;entryDy=0;entryPerimeter=0;" edge="1" parent="1" source="wqrN-mfLRdxK1pLGfhty-13" target="wqrN-mfLRdxK1pLGfhty-5">
          <mxGeometry relative="1" as="geometry">
            <mxPoint x="540" y="360" as="targetPoint" />
          </mxGeometry>
        </mxCell>
        <mxCell id="wqrN-mfLRdxK1pLGfhty-13" value="标识id获取手机号" style="rounded=0;whiteSpace=wrap;html=1;" vertex="1" parent="1">
          <mxGeometry x="280" y="440" width="120" height="60" as="geometry" />
        </mxCell>
      </root>
    </mxGraphModel>
  </diagram>
</mxfile>
